<svg width="200" height="200" viewBox="0 0 200 200" fill="none" xmlns="http://www.w3.org/2000/svg">
    <g clip-path="url(#clip0_2:10)">
        <rect width="200" height="200" fill="#F7DF1E" />
        <rect width="204" height="204" transform="translate(-4 -4)" fill="#F7DF1E" />
        <path d="M-4 -4H200V200H-4V-4Z" fill="#F7DF1E" />
        <path d="M49.6393 166.477L65.2501 157.029C68.2623 162.369 71.0019 166.887 77.5737 166.887C83.873 166.887 87.8455 164.424 87.8455 154.839V89.6559H107.016V155.11C107.016 174.965 95.3767 184.004 78.3953 184.004C63.0595 184.004 54.1576 176.061 49.6385 166.475" fill="black" />
        <path d="M117.429 164.423L133.038 155.385C137.147 162.096 142.488 167.025 151.936 167.025C159.88 167.025 164.945 163.054 164.945 157.576C164.945 151.003 159.741 148.675 150.977 144.842L146.185 142.786C132.354 136.899 123.18 129.504 123.18 113.894C123.18 99.5149 134.134 88.5594 151.252 88.5594C163.439 88.5594 172.203 92.8052 178.502 103.897L163.575 113.483C160.288 107.595 156.729 105.267 151.251 105.267C145.636 105.267 142.076 108.828 142.076 113.483C142.076 119.234 145.636 121.564 153.852 125.124L158.645 127.178C174.941 134.162 184.115 141.282 184.115 157.303C184.115 174.558 170.559 184.006 152.346 184.006C134.545 184.006 123.042 175.516 117.428 164.424" fill="black" />
    </g>
    <defs>
        <clipPath id="clip0_2:10">
            <rect width="200" height="200" rx="5" fill="white" />
        </clipPath>
    </defs>
</svg>